<mxfile host="app.diagrams.net" modified="2021-09-16T19:59:32.983Z" agent="5.0 (X11)" etag="oF5eJxZG56mnY9X4Sc4k" version="15.2.9" type="github">
  <diagram id="TCPcGoRwd8Ckm71j1jPV" name="Page-1">
    <mxGraphModel dx="1422" dy="763" grid="1" gridSize="10" guides="1" tooltips="1" connect="1" arrows="1" fold="1" page="1" pageScale="1" pageWidth="850" pageHeight="1100" math="0" shadow="0">
      <root>
        <mxCell id="0" />
        <mxCell id="1" parent="0" />
        <mxCell id="X2hsL6l2no8eATCDdfKI-1" value="Actor" style="shape=umlActor;verticalLabelPosition=bottom;verticalAlign=top;html=1;outlineConnect=0;" vertex="1" parent="1">
          <mxGeometry x="160" y="300" width="30" height="60" as="geometry" />
        </mxCell>
        <mxCell id="X2hsL6l2no8eATCDdfKI-3" value="endpoint.ex" style="rounded=0;whiteSpace=wrap;html=1;" vertex="1" parent="1">
          <mxGeometry x="590" y="150" width="120" height="60" as="geometry" />
        </mxCell>
        <mxCell id="X2hsL6l2no8eATCDdfKI-16" value="" style="edgeStyle=orthogonalEdgeStyle;rounded=0;orthogonalLoop=1;jettySize=auto;html=1;entryX=0.5;entryY=0;entryDx=0;entryDy=0;exitX=0.25;exitY=1;exitDx=0;exitDy=0;" edge="1" parent="1" source="X2hsL6l2no8eATCDdfKI-4" target="X2hsL6l2no8eATCDdfKI-5">
          <mxGeometry relative="1" as="geometry">
            <mxPoint x="610" y="320" as="sourcePoint" />
          </mxGeometry>
        </mxCell>
        <mxCell id="X2hsL6l2no8eATCDdfKI-17" value="" style="edgeStyle=orthogonalEdgeStyle;rounded=0;orthogonalLoop=1;jettySize=auto;html=1;" edge="1" parent="1" source="X2hsL6l2no8eATCDdfKI-4" target="X2hsL6l2no8eATCDdfKI-10">
          <mxGeometry relative="1" as="geometry">
            <Array as="points">
              <mxPoint x="670" y="330" />
              <mxPoint x="710" y="330" />
            </Array>
          </mxGeometry>
        </mxCell>
        <mxCell id="X2hsL6l2no8eATCDdfKI-4" value="router.ex" style="rounded=0;whiteSpace=wrap;html=1;" vertex="1" parent="1">
          <mxGeometry x="590" y="250" width="120" height="60" as="geometry" />
        </mxCell>
        <mxCell id="X2hsL6l2no8eATCDdfKI-18" value="" style="edgeStyle=orthogonalEdgeStyle;rounded=0;orthogonalLoop=1;jettySize=auto;html=1;" edge="1" parent="1" source="X2hsL6l2no8eATCDdfKI-5" target="X2hsL6l2no8eATCDdfKI-7">
          <mxGeometry relative="1" as="geometry" />
        </mxCell>
        <mxCell id="X2hsL6l2no8eATCDdfKI-5" value="&lt;div&gt;controller.ex&lt;/div&gt;" style="rounded=0;whiteSpace=wrap;html=1;" vertex="1" parent="1">
          <mxGeometry x="510" y="350" width="120" height="60" as="geometry" />
        </mxCell>
        <mxCell id="X2hsL6l2no8eATCDdfKI-7" value="view.ex" style="rounded=0;whiteSpace=wrap;html=1;" vertex="1" parent="1">
          <mxGeometry x="510" y="430" width="120" height="60" as="geometry" />
        </mxCell>
        <mxCell id="X2hsL6l2no8eATCDdfKI-8" value="" style="endArrow=classic;html=1;" edge="1" parent="1">
          <mxGeometry width="50" height="50" relative="1" as="geometry">
            <mxPoint x="210" y="300" as="sourcePoint" />
            <mxPoint x="540" y="190" as="targetPoint" />
          </mxGeometry>
        </mxCell>
        <mxCell id="X2hsL6l2no8eATCDdfKI-9" value="" style="endArrow=classic;html=1;" edge="1" parent="1">
          <mxGeometry width="50" height="50" relative="1" as="geometry">
            <mxPoint x="470" y="460" as="sourcePoint" />
            <mxPoint x="230" y="350" as="targetPoint" />
          </mxGeometry>
        </mxCell>
        <mxCell id="X2hsL6l2no8eATCDdfKI-14" value="" style="edgeStyle=orthogonalEdgeStyle;rounded=0;orthogonalLoop=1;jettySize=auto;html=1;" edge="1" parent="1" source="X2hsL6l2no8eATCDdfKI-10" target="X2hsL6l2no8eATCDdfKI-11">
          <mxGeometry relative="1" as="geometry" />
        </mxCell>
        <mxCell id="X2hsL6l2no8eATCDdfKI-10" value="&lt;div&gt;controller.ex&lt;/div&gt;" style="rounded=0;whiteSpace=wrap;html=1;" vertex="1" parent="1">
          <mxGeometry x="650" y="350" width="120" height="60" as="geometry" />
        </mxCell>
        <mxCell id="X2hsL6l2no8eATCDdfKI-11" value="view.ex" style="rounded=0;whiteSpace=wrap;html=1;" vertex="1" parent="1">
          <mxGeometry x="650" y="430" width="120" height="60" as="geometry" />
        </mxCell>
        <mxCell id="X2hsL6l2no8eATCDdfKI-12" value="" style="endArrow=classic;html=1;" edge="1" parent="1" source="X2hsL6l2no8eATCDdfKI-3" target="X2hsL6l2no8eATCDdfKI-4">
          <mxGeometry width="50" height="50" relative="1" as="geometry">
            <mxPoint x="310" y="420" as="sourcePoint" />
            <mxPoint x="360" y="370" as="targetPoint" />
          </mxGeometry>
        </mxCell>
      </root>
    </mxGraphModel>
  </diagram>
</mxfile>
